# File created by Blade
# Date/Time:  Thu Jan 22 19:13:14 2015
# Frame Rate: 120.000 fps
#------------------------------------------------------
:FULLY-SPECIFIED
:DEGREES
1559
root 0.548736 26.979989 -2.834308 16.283280 -23.735940 5.823391
RightUpLeg -76.275935 -54.558857 15.585097
RightLeg 68.770090 -0.000000 -0.000000
RightFoot -25.240897 2.675098 1.373388
RightToeBase 0.978718 -0.000000 -0.000000
LeftUpLeg 0.539440 26.614011 26.354710
LeftLeg 1.713213 -0.000000 -0.000000
LeftFoot -9.327497 1.288534 -45.705962
LeftToeBase 8.303833 -0.000000 -0.000000
Spine -12.383597 11.923587 2.514194
RightShoulder -16.766324 -9.866442 -27.467158
RightArm 26.997515 52.108831 61.921685
RightForeArm 25.361549 -0.000000 23.524584
RightHand 20.822880 0.000000 0.411368
RightHandThumb1 -24.326973 -0.000000 -32.862282
LeftShoulder -28.043480 10.275802 27.468277
LeftArm -4.895359 -49.708594 -32.659066
LeftForeArm -12.497138 -0.000000 3.051895
LeftHand -1.993213 -0.000000 -1.552618
LeftHandThumb1 -26.253704 0.000000 33.147579
Head 2.200096 2.561478 -8.650989
1560
root 0.555780 26.976707 -2.848767 16.320792 -23.745487 5.968721
RightUpLeg -76.489676 -54.523268 15.555378
RightLeg 68.847867 -0.000000 -0.000000
RightFoot -25.221866 2.734149 1.428615
RightToeBase 0.963090 -0.000000 -0.000000
LeftUpLeg 0.418828 26.635714 26.166201
LeftLeg 1.676651 -0.000000 -0.000000
LeftFoot -9.269111 1.301418 -45.680821
LeftToeBase 8.289653 -0.000000 -0.000000
Spine -12.292565 11.907238 2.709172
RightShoulder -16.745500 -9.825570 -27.488091
RightArm 26.834855 52.059683 61.810175
RightForeArm 25.361730 -0.000000 23.630685
RightHand 20.818124 -0.000000 0.440913
RightHandThumb1 -24.326973 -0.000000 -32.862282
LeftShoulder -28.030115 10.216063 27.490379
LeftArm -4.965942 -49.553265 -32.612264
LeftForeArm -12.418532 0.000000 2.979024
LeftHand -2.028786 -0.000000 -1.421623
LeftHandThumb1 -26.253704 0.000000 33.147579
Head 1.986453 2.620902 -8.841550
1561
root 0.559225 26.974155 -2.863034 16.355043 -23.760137 6.089677
RightUpLeg -76.692831 -54.482547 15.562919
RightLeg 68.910890 -0.000000 -0.000000
RightFoot -25.211308 2.658877 1.407666
RightToeBase 0.939618 -0.000000 -0.000000
LeftUpLeg 0.304586 26.795216 26.011616
LeftLeg 1.665653 -0.000000 -0.000000
LeftFoot -9.120924 1.249440 -45.602437
LeftToeBase 8.256547 -0.000000 -0.000000
Spine -12.169927 11.911314 2.928991
RightShoulder -16.746764 -9.724675 -27.490770
RightArm 26.664720 52.010920 61.685446
RightForeArm 25.484916 -0.000000 23.720479
RightHand 20.762932 -0.000000 0.384959
RightHandThumb1 -24.326973 -0.000000 -32.862282
LeftShoulder -28.095917 10.276035 27.429019
LeftArm -4.772478 -49.484460 -32.725362
LeftForeArm -12.396593 0.000000 2.865674
LeftHand -1.956135 -0.000000 -1.373880
LeftHandThumb1 -26.253704 0.000000 33.147579
Head 1.728911 2.656923 -9.046136
1562
root 0.563140 26.970563 -2.878562 16.397609 -23.759004 6.190834
RightUpLeg -76.891340 -54.441244 15.588877
RightLeg 68.989293 -0.000000 -0.000000
RightFoot -25.233164 2.668909 1.432456
RightToeBase 0.999216 -0.000000 -0.000000
LeftUpLeg 0.197572 26.860714 25.880347
LeftLeg 1.625936 -0.000000 -0.000000
LeftFoot -9.033485 1.228772 -45.597221
LeftToeBase 8.257851 -0.000000 -0.000000
Spine -12.056469 11.930688 3.187344
RightShoulder -16.732834 -9.820835 -27.453736
RightArm 26.686879 52.086953 61.729769
RightForeArm 25.441624 -0.000000 23.819601
RightHand 20.710375 0.000000 0.466769
RightHandThumb1 -24.326973 -0.000000 -32.862282
LeftShoulder -28.084301 10.232643 27.444391
LeftArm -4.768891 -49.434986 -32.715297
LeftForeArm -12.296731 0.000000 2.788338
LeftHand -1.945120 0.000000 -1.391988
LeftHandThumb1 -26.253704 0.000000 33.147579
Head 1.547304 2.720997 -9.225040
1563
root 0.567182 26.968536 -2.892987 16.417030 -23.735638 6.307111
RightUpLeg -77.078333 -54.445946 15.607092
RightLeg 69.050942 -0.000000 -0.000000
RightFoot -25.239791 2.666917 1.445795
RightToeBase 1.006117 -0.000000 -0.000000
LeftUpLeg 0.084869 26.919231 25.736429
LeftLeg 1.600985 -0.000000 -0.000000
LeftFoot -8.930710 1.208283 -45.547140
LeftToeBase 8.211080 -0.000000 -0.000000
Spine -11.897303 11.897838 3.470355
RightShoulder -16.741357 -9.773545 -27.449100
RightArm 26.539290 51.966788 61.593148
RightForeArm 25.649476 -0.000000 23.887805
RightHand 20.795927 0.000000 0.474127
RightHandThumb1 -24.326973 -0.000000 -32.862282
LeftShoulder -28.132474 10.201730 27.403786
LeftArm -4.725454 -49.315502 -32.680107
LeftForeArm -12.121137 0.000000 2.715388
LeftHand -1.923737 -0.000000 -1.533126
LeftHandThumb1 -26.253704 0.000000 33.147579
Head 1.298223 2.791907 -9.428051
1564
root 0.569732 26.966538 -2.909057 16.453399 -23.692052 6.418085
RightUpLeg -77.284834 -54.455995 15.651480
RightLeg 69.109610 -0.000000 -0.000000
RightFoot -25.254107 2.646944 1.456489
RightToeBase 1.040038 -0.000000 -0.000000
LeftUpLeg -0.061520 26.943643 25.601455
LeftLeg 1.588303 -0.000000 -0.000000
LeftFoot -8.801900 1.181110 -45.483757
LeftToeBase 8.117966 -0.000000 -0.000000
Spine -11.759838 11.845849 3.782672
RightShoulder -16.733070 -9.791959 -27.486237
RightArm 26.659065 52.053335 61.815261
RightForeArm 25.718880 -0.000000 23.928574
RightHand 20.825670 -0.000000 0.567462
RightHandThumb1 -24.326973 -0.000000 -32.862282
LeftShoulder -28.215690 10.291041 27.282917
LeftArm -4.516272 -49.336796 -32.723319
LeftForeArm -12.048128 -0.000000 2.631516
LeftHand -1.783823 -0.000000 -1.263356
LeftHandThumb1 -26.253704 0.000000 33.147579
Head 1.061156 2.842914 -9.661861
